<mxfile host="app.diagrams.net" agent="Mozilla/5.0 (Windows NT 10.0; Win64; x64) AppleWebKit/537.36 (KHTML, like Gecko) Chrome/131.0.0.0 Safari/537.36" version="25.0.3">
  <diagram name="Trang-1" id="XYz5ThSai3l7woocLl6y">
    <mxGraphModel dx="880" dy="468" grid="1" gridSize="10" guides="1" tooltips="1" connect="1" arrows="1" fold="1" page="1" pageScale="1" pageWidth="827" pageHeight="1169" math="0" shadow="0">
      <root>
        <mxCell id="0" />
        <mxCell id="1" parent="0" />
        <mxCell id="cPi2NG6Zsj9aEK77VqmT-1" value="End" style="ellipse;whiteSpace=wrap;html=1;aspect=fixed;" vertex="1" parent="1">
          <mxGeometry x="360" y="1080" width="80" height="80" as="geometry" />
        </mxCell>
        <mxCell id="cPi2NG6Zsj9aEK77VqmT-13" style="edgeStyle=orthogonalEdgeStyle;rounded=0;orthogonalLoop=1;jettySize=auto;html=1;exitX=0.5;exitY=1;exitDx=0;exitDy=0;entryX=0.5;entryY=0;entryDx=0;entryDy=0;" edge="1" parent="1" source="cPi2NG6Zsj9aEK77VqmT-2" target="cPi2NG6Zsj9aEK77VqmT-3">
          <mxGeometry relative="1" as="geometry" />
        </mxCell>
        <mxCell id="cPi2NG6Zsj9aEK77VqmT-2" value="Start" style="ellipse;whiteSpace=wrap;html=1;aspect=fixed;" vertex="1" parent="1">
          <mxGeometry x="360" width="80" height="80" as="geometry" />
        </mxCell>
        <mxCell id="cPi2NG6Zsj9aEK77VqmT-14" style="edgeStyle=orthogonalEdgeStyle;rounded=0;orthogonalLoop=1;jettySize=auto;html=1;exitX=0.5;exitY=1;exitDx=0;exitDy=0;entryX=0.5;entryY=0;entryDx=0;entryDy=0;" edge="1" parent="1" source="cPi2NG6Zsj9aEK77VqmT-3" target="cPi2NG6Zsj9aEK77VqmT-4">
          <mxGeometry relative="1" as="geometry" />
        </mxCell>
        <mxCell id="cPi2NG6Zsj9aEK77VqmT-3" value="number = 2, count =0,&lt;div&gt;n&lt;/div&gt;" style="shape=parallelogram;perimeter=parallelogramPerimeter;whiteSpace=wrap;html=1;fixedSize=1;" vertex="1" parent="1">
          <mxGeometry x="325" y="120" width="150" height="60" as="geometry" />
        </mxCell>
        <mxCell id="cPi2NG6Zsj9aEK77VqmT-15" style="edgeStyle=orthogonalEdgeStyle;rounded=0;orthogonalLoop=1;jettySize=auto;html=1;exitX=0.5;exitY=1;exitDx=0;exitDy=0;entryX=0.5;entryY=0;entryDx=0;entryDy=0;" edge="1" parent="1" source="cPi2NG6Zsj9aEK77VqmT-4" target="cPi2NG6Zsj9aEK77VqmT-5">
          <mxGeometry relative="1" as="geometry" />
        </mxCell>
        <mxCell id="cPi2NG6Zsj9aEK77VqmT-4" value="n &amp;lt; 1" style="rhombus;whiteSpace=wrap;html=1;" vertex="1" parent="1">
          <mxGeometry x="360" y="220" width="80" height="80" as="geometry" />
        </mxCell>
        <mxCell id="cPi2NG6Zsj9aEK77VqmT-16" style="edgeStyle=orthogonalEdgeStyle;rounded=0;orthogonalLoop=1;jettySize=auto;html=1;exitX=0.5;exitY=1;exitDx=0;exitDy=0;entryX=0.5;entryY=0;entryDx=0;entryDy=0;" edge="1" parent="1" source="cPi2NG6Zsj9aEK77VqmT-5" target="cPi2NG6Zsj9aEK77VqmT-7">
          <mxGeometry relative="1" as="geometry" />
        </mxCell>
        <mxCell id="cPi2NG6Zsj9aEK77VqmT-5" value="khong co so nguyen to nao" style="shape=parallelogram;perimeter=parallelogramPerimeter;whiteSpace=wrap;html=1;fixedSize=1;" vertex="1" parent="1">
          <mxGeometry x="315" y="340" width="170" height="60" as="geometry" />
        </mxCell>
        <mxCell id="cPi2NG6Zsj9aEK77VqmT-17" style="edgeStyle=orthogonalEdgeStyle;rounded=0;orthogonalLoop=1;jettySize=auto;html=1;exitX=0.5;exitY=1;exitDx=0;exitDy=0;entryX=0.5;entryY=0;entryDx=0;entryDy=0;" edge="1" parent="1" source="cPi2NG6Zsj9aEK77VqmT-7" target="cPi2NG6Zsj9aEK77VqmT-8">
          <mxGeometry relative="1" as="geometry" />
        </mxCell>
        <mxCell id="cPi2NG6Zsj9aEK77VqmT-22" style="edgeStyle=orthogonalEdgeStyle;rounded=0;orthogonalLoop=1;jettySize=auto;html=1;exitX=1;exitY=0.5;exitDx=0;exitDy=0;entryX=1;entryY=0.5;entryDx=0;entryDy=0;" edge="1" parent="1" source="cPi2NG6Zsj9aEK77VqmT-7" target="cPi2NG6Zsj9aEK77VqmT-1">
          <mxGeometry relative="1" as="geometry" />
        </mxCell>
        <mxCell id="cPi2NG6Zsj9aEK77VqmT-7" value="while(count&amp;lt;n)" style="rhombus;whiteSpace=wrap;html=1;" vertex="1" parent="1">
          <mxGeometry x="350" y="540" width="100" height="80" as="geometry" />
        </mxCell>
        <mxCell id="cPi2NG6Zsj9aEK77VqmT-18" style="edgeStyle=orthogonalEdgeStyle;rounded=0;orthogonalLoop=1;jettySize=auto;html=1;exitX=0.5;exitY=1;exitDx=0;exitDy=0;" edge="1" parent="1" source="cPi2NG6Zsj9aEK77VqmT-8" target="cPi2NG6Zsj9aEK77VqmT-10">
          <mxGeometry relative="1" as="geometry" />
        </mxCell>
        <mxCell id="cPi2NG6Zsj9aEK77VqmT-8" value="kiemtraSNT" style="rhombus;whiteSpace=wrap;html=1;" vertex="1" parent="1">
          <mxGeometry x="360" y="660" width="80" height="80" as="geometry" />
        </mxCell>
        <mxCell id="cPi2NG6Zsj9aEK77VqmT-19" style="edgeStyle=orthogonalEdgeStyle;rounded=0;orthogonalLoop=1;jettySize=auto;html=1;exitX=0.5;exitY=1;exitDx=0;exitDy=0;entryX=0.5;entryY=0;entryDx=0;entryDy=0;" edge="1" parent="1" source="cPi2NG6Zsj9aEK77VqmT-10" target="cPi2NG6Zsj9aEK77VqmT-11">
          <mxGeometry relative="1" as="geometry" />
        </mxCell>
        <mxCell id="cPi2NG6Zsj9aEK77VqmT-10" value="count++" style="rounded=0;whiteSpace=wrap;html=1;" vertex="1" parent="1">
          <mxGeometry x="340" y="880" width="120" height="60" as="geometry" />
        </mxCell>
        <mxCell id="cPi2NG6Zsj9aEK77VqmT-20" style="edgeStyle=orthogonalEdgeStyle;rounded=0;orthogonalLoop=1;jettySize=auto;html=1;exitX=0;exitY=0.5;exitDx=0;exitDy=0;entryX=0;entryY=0.5;entryDx=0;entryDy=0;" edge="1" parent="1" source="cPi2NG6Zsj9aEK77VqmT-11" target="cPi2NG6Zsj9aEK77VqmT-7">
          <mxGeometry relative="1" as="geometry" />
        </mxCell>
        <mxCell id="cPi2NG6Zsj9aEK77VqmT-11" value="number++" style="rounded=0;whiteSpace=wrap;html=1;" vertex="1" parent="1">
          <mxGeometry x="340" y="980" width="120" height="60" as="geometry" />
        </mxCell>
        <mxCell id="cPi2NG6Zsj9aEK77VqmT-23" value="True" style="text;html=1;align=center;verticalAlign=middle;whiteSpace=wrap;rounded=0;" vertex="1" parent="1">
          <mxGeometry x="255" y="610" width="60" height="30" as="geometry" />
        </mxCell>
        <mxCell id="cPi2NG6Zsj9aEK77VqmT-24" value="False" style="text;html=1;align=center;verticalAlign=middle;whiteSpace=wrap;rounded=0;" vertex="1" parent="1">
          <mxGeometry x="470" y="620" width="60" height="30" as="geometry" />
        </mxCell>
        <mxCell id="cPi2NG6Zsj9aEK77VqmT-25" value="n so nguyen to dau tien la" style="shape=parallelogram;perimeter=parallelogramPerimeter;whiteSpace=wrap;html=1;fixedSize=1;" vertex="1" parent="1">
          <mxGeometry x="310" y="440" width="160" height="60" as="geometry" />
        </mxCell>
        <mxCell id="cPi2NG6Zsj9aEK77VqmT-27" value="number" style="shape=parallelogram;perimeter=parallelogramPerimeter;whiteSpace=wrap;html=1;fixedSize=1;" vertex="1" parent="1">
          <mxGeometry x="340" y="780" width="120" height="60" as="geometry" />
        </mxCell>
      </root>
    </mxGraphModel>
  </diagram>
</mxfile>
